<svg id="Layer_1" data-name="Layer 1" xmlns="http://www.w3.org/2000/svg" viewBox="0 0 414.45 96.16" height="100%">
  <path d="M294.22,446.37a17.37,17.37,0,0,0-7.74-6.44,29,29,0,0,0-11.91-2.23h-23v50.4h14.25V474.92h8.79a28.66,28.66,0,0,0,11.91-2.27,18.41,18.41,0,0,0,7.74-26.28Zm-13.86,15.37q-2.19,2-6.66,1.95h-7.92V448.93h7.92q4.47,0,6.66,1.94a6.91,6.91,0,0,1,2.2,5.47A6.8,6.8,0,0,1,280.36,461.74Z" transform="translate(-251.51 -436.69)" />
  <polygon points="92.83 40.39 66.48 40.39 66.48 31.18 88.87 31.18 88.87 20.52 66.48 20.52 66.48 12.02 91.89 12.02 91.89 1.01 52.37 1.01 52.37 51.41 92.83 51.41 92.83 40.39" />
  <path d="M387.81,472.23a17.14,17.14,0,0,0,7.14-6.06,17.36,17.36,0,0,0,2.74-9.83,17.85,17.85,0,0,0-2.74-10,17.37,17.37,0,0,0-7.74-6.44,29,29,0,0,0-11.91-2.23h-23v50.4h14.25V474.7h7.78l9.14,13.4H398.7Zm-6.72-10.49q-2.19,2-6.66,1.95h-7.92V448.93h7.92q4.47,0,6.66,1.94a6.91,6.91,0,0,1,2.2,5.47A6.8,6.8,0,0,1,381.09,461.74Z" transform="translate(-251.51 -436.69)" />
  <path d="M428.07,477.48a17,17,0,0,1-4.75.54,28.92,28.92,0,0,1-8.82-1.41,32.65,32.65,0,0,1-7.81-3.56L402,483.56a31.24,31.24,0,0,0,9.32,4,45.57,45.57,0,0,0,11.92,1.54,30.16,30.16,0,0,0,12.42-2.23,16.94,16.94,0,0,0,7.41-5.94,14.22,14.22,0,0,0,2.49-8.1,12.86,12.86,0,0,0-1.55-6.59A12.52,12.52,0,0,0,440,462a23.41,23.41,0,0,0-5.58-2.6q-3.06-1-6.12-1.62t-5.61-1.26a13.51,13.51,0,0,1-4.11-1.58,3,3,0,0,1-1.55-2.63,3.62,3.62,0,0,1,.8-2.3,5.4,5.4,0,0,1,2.59-1.62,15.06,15.06,0,0,1,4.75-.61,25.6,25.6,0,0,1,6.84,1,34.54,34.54,0,0,1,7.13,2.91l4.39-10.58A31.36,31.36,0,0,0,435,437.8a43.09,43.09,0,0,0-9.76-1.11,30.19,30.19,0,0,0-12.38,2.23,17.24,17.24,0,0,0-7.45,5.9,14.32,14.32,0,0,0-2.49,8.21,12.11,12.11,0,0,0,5.69,10.91,24.28,24.28,0,0,0,5.58,2.63,57.83,57.83,0,0,0,6.12,1.65q3.06.66,5.58,1.3a13.92,13.92,0,0,1,4.1,1.66,3.09,3.09,0,0,1,1.59,2.73,3.05,3.05,0,0,1-.83,2.13A5.76,5.76,0,0,1,428.07,477.48Z" transform="translate(-251.51 -436.69)" />
  <polygon points="309.48 1.01 295.51 1.01 295.51 27.87 273.26 1.01 261.52 1.01 261.52 51.41 275.49 51.41 275.49 24.55 297.74 51.41 309.48 51.41 309.48 1.01" />
  <path d="M601.3,437.7h-14L565,488.1h14.54l3.93-9.8h21.37l3.93,9.8h14.83Zm-13.59,30.09,6.47-16.11,6.46,16.11Z" transform="translate(-251.51 -436.69)" />
  <polygon points="390.4 40.1 390.4 1.01 376.15 1.01 376.15 51.41 414.45 51.41 414.45 40.1 390.4 40.1" />
  <polygon points="34.6 58.1 21.82 79.66 8.69 58.1 0 58.1 0 95.41 9.76 95.41 9.76 76.17 19.3 91.73 23.99 91.73 33.6 75.61 33.69 95.41 43.4 95.41 43.29 58.1 34.6 58.1" />
  <path d="M324.75,494.79H314.36L297.89,532.1h10.76l2.91-7.25h15.83l2.91,7.25h11Zm-10.06,22.28,4.79-11.93,4.79,11.93Z" transform="translate(-251.51 -436.69)" />
  <polygon points="117.92 77.98 101.45 58.1 92.76 58.1 92.76 95.41 103.1 95.41 103.1 75.53 119.58 95.41 128.26 95.41 128.26 58.1 117.92 58.1 117.92 77.98" />
  <path d="M409.62,494.79H399.23L382.76,532.1h10.77l2.91-7.25h15.82l2.91,7.25h11Zm-10.06,22.28,4.79-11.93,4.79,11.93Z" transform="translate(-251.51 -436.69)" />
  <path d="M440.28,505.69a9.18,9.18,0,0,1,3.36-2.16,12.18,12.18,0,0,1,4.37-.75,11.52,11.52,0,0,1,4.93,1,13.37,13.37,0,0,1,4.13,3.12l6.72-6.08a17.64,17.64,0,0,0-6.88-5.06,25.8,25.8,0,0,0-17.78-.35,19.38,19.38,0,0,0-6.58,4,18.52,18.52,0,0,0-4.32,6.15,20.45,20.45,0,0,0,0,15.62,18.77,18.77,0,0,0,4.29,6.16,19,19,0,0,0,6.53,4,23.36,23.36,0,0,0,8.21,1.41,29.8,29.8,0,0,0,8.27-1.22,24.42,24.42,0,0,0,7.41-3.52V512.64h-9.33v10.24c-.38.17-.75.32-1.12.45a13.87,13.87,0,0,1-4.59.77,11.45,11.45,0,0,1-4.29-.77,9.29,9.29,0,0,1-3.33-2.19,9.7,9.7,0,0,1-2.16-3.38,11.61,11.61,0,0,1-.77-4.32,11.78,11.78,0,0,1,.77-4.4A9.86,9.86,0,0,1,440.28,505.69Z" transform="translate(-251.51 -436.69)" />
  <polygon points="228.59 80.43 245.17 80.43 245.17 72.54 228.59 72.54 228.59 66.25 247.41 66.25 247.41 58.1 218.15 58.1 218.15 95.41 248.11 95.41 248.11 87.25 228.59 87.25 228.59 80.43" />
  <polygon points="288.57 58.1 275.8 79.66 262.66 58.1 253.97 58.1 253.97 95.41 263.73 95.41 263.73 76.17 273.27 91.73 277.96 91.73 287.57 75.61 287.66 95.41 297.37 95.41 297.26 58.1 288.57 58.1" />
  <polygon points="315.28 80.43 331.86 80.43 331.86 72.54 315.28 72.54 315.28 66.25 334.1 66.25 334.1 58.1 304.83 58.1 304.83 95.41 334.79 95.41 334.79 87.25 315.28 87.25 315.28 80.43" />
  <polygon points="365.82 77.98 349.34 58.1 340.65 58.1 340.65 95.41 351 95.41 351 75.53 367.47 95.41 376.16 95.41 376.16 58.1 365.82 58.1 365.82 77.98" />
  <polygon points="380.1 66.47 391.56 66.47 391.56 95.41 402.12 95.41 402.12 66.47 413.53 66.47 413.53 58.1 380.1 58.1 380.1 66.47" />
  <path d="M485.11,472.72,478,479.8,471,472.72l-10-10a1.9,1.9,0,0,1,0-2.68l4.4-4.4a1.88,1.88,0,0,1,2.67,0l10,10,19.79-19.8a26.16,26.16,0,1,0,5.07,9.08Z" transform="translate(-251.51 -436.69)" />
</svg>