<svg id="Layer_1" data-name="Layer 1" xmlns="http://www.w3.org/2000/svg" viewBox="0 0 542.73 52.42">
  <polygon points="289.65 51.41 289.51 1.01 277.77 1.01 260.52 30.13 242.78 1.01 231.05 1.01 231.05 51.41 244.22 51.41 244.22 25.41 257.11 46.44 263.45 46.44 276.42 24.67 276.55 51.41 289.65 51.41" />
  <path d="M562.93,401.52h14.83l-22.32-50.4h-14l-22.25,50.4h14.54l3.93-9.8H559Zm-21.09-20.31,6.47-16.11,6.47,16.11Z" transform="translate(-225.47 -350.11)" />
  <path d="M620.27,379.66a12.49,12.49,0,0,0-4.06-4.24,23,23,0,0,0-5.58-2.6q-3.06-1-6.12-1.62c-2-.43-3.92-.85-5.62-1.26a13.55,13.55,0,0,1-4.1-1.58,3,3,0,0,1-1.55-2.63,3.61,3.61,0,0,1,.79-2.3,5.45,5.45,0,0,1,2.59-1.62,15.1,15.1,0,0,1,4.75-.61,25.6,25.6,0,0,1,6.84,1,33.78,33.78,0,0,1,7.13,2.91l4.39-10.58a31.23,31.23,0,0,0-8.53-3.28,43,43,0,0,0-9.75-1.11,30.21,30.21,0,0,0-12.39,2.23,17.23,17.23,0,0,0-7.45,5.9,14.31,14.31,0,0,0-2.48,8.21,12.68,12.68,0,0,0,1.58,6.66,12.92,12.92,0,0,0,4.1,4.25,24.28,24.28,0,0,0,5.58,2.63,57.83,57.83,0,0,0,6.12,1.65q3.06.66,5.58,1.3a14.11,14.11,0,0,1,4.11,1.66,3.1,3.1,0,0,1,1.58,2.73,3,3,0,0,1-.83,2.13,5.72,5.72,0,0,1-2.62,1.44,17.07,17.07,0,0,1-4.76.54,29,29,0,0,1-8.82-1.41,32.83,32.83,0,0,1-7.81-3.56L578.26,397a31.19,31.19,0,0,0,9.33,4,45.44,45.44,0,0,0,11.91,1.54,30.16,30.16,0,0,0,12.42-2.23,17.17,17.17,0,0,0,7.42-5.94,14.29,14.29,0,0,0,2.48-8.1A12.76,12.76,0,0,0,620.27,379.66Z" transform="translate(-225.47 -350.11)" />
  <path d="M638.38,401.52v-39.1H622.9v-11.3h45.15v11.3H652.64v39.1Z" transform="translate(-225.47 -350.11)" />
  <polygon points="462.02 40.39 462.02 31.18 484.41 31.18 484.41 20.52 462.02 20.52 462.02 12.02 487.44 12.02 487.44 1.01 447.91 1.01 447.91 51.41 488.37 51.41 488.37 40.39 462.02 40.39" />
  <path d="M752.93,401.52H768.2l-10.89-15.88a17.12,17.12,0,0,0,7.14-6.05,17.36,17.36,0,0,0,2.74-9.83,17.85,17.85,0,0,0-2.74-10,17.37,17.37,0,0,0-7.74-6.44,29,29,0,0,0-11.91-2.23h-23v50.4H736v-13.4h7.79Zm-2.34-37.23a6.91,6.91,0,0,1,2.2,5.47,6.8,6.8,0,0,1-2.2,5.4q-2.19,1.95-6.66,1.95H736V362.35h7.92Q748.4,362.35,750.59,364.29Z" transform="translate(-225.47 -350.11)" />
  <path d="M241,401.52v-39.1H225.47v-11.3h45.14v11.3H255.2v39.1Z" transform="translate(-225.47 -350.11)" />
  <path d="M300.63,402.52a31.08,31.08,0,0,1-11.16-1.94,26.55,26.55,0,0,1-8.89-5.51,25.28,25.28,0,0,1-5.87-8.31,27.24,27.24,0,0,1,0-20.88,25.32,25.32,0,0,1,5.87-8.32,26.55,26.55,0,0,1,8.89-5.51,33.18,33.18,0,0,1,22.36,0,26,26,0,0,1,14.69,13.83,25.32,25.32,0,0,1,2.12,10.43,25.34,25.34,0,0,1-8,18.8,26.72,26.72,0,0,1-8.82,5.47A31,31,0,0,1,300.63,402.52Zm0-11.8a14.21,14.21,0,0,0,5.37-1,12.51,12.51,0,0,0,4.32-2.92,13.79,13.79,0,0,0,2.88-4.57,17.37,17.37,0,0,0,0-11.84,13.86,13.86,0,0,0-2.88-4.54,12.65,12.65,0,0,0-4.32-2.92,14.89,14.89,0,0,0-10.73,0,12.46,12.46,0,0,0-4.32,2.92,13.7,13.7,0,0,0-2.88,4.54,17.37,17.37,0,0,0,0,11.84,13.63,13.63,0,0,0,2.88,4.57,12.33,12.33,0,0,0,4.32,2.92A14.16,14.16,0,0,0,300.63,390.72Z" transform="translate(-225.47 -350.11)" />
  <path d="M336.13,401.52v-50.4H360a33.14,33.14,0,0,1,14.69,3.09,23.93,23.93,0,0,1,9.9,8.71,26.91,26.91,0,0,1,0,26.75,23.74,23.74,0,0,1-9.9,8.75,33.14,33.14,0,0,1-14.69,3.1Zm14.25-11.38h9a16.51,16.51,0,0,0,7.53-1.62,11.87,11.87,0,0,0,5-4.75,16.4,16.4,0,0,0,0-14.94,11.86,11.86,0,0,0-5-4.72,16.51,16.51,0,0,0-7.53-1.62h-9Z" transform="translate(-225.47 -350.11)" />
  <path d="M428.11,386.14,421,393.21,414,386.14l-10-10a1.88,1.88,0,0,1,0-2.67l4.4-4.4a1.88,1.88,0,0,1,2.67,0l10,10,19.79-19.79a26.16,26.16,0,1,0,5.07,9.08Z" transform="translate(-225.47 -350.11)" />
</svg>